<svg width="112" height="120" viewBox="0 0 112 120" fill="none" xmlns="http://www.w3.org/2000/svg">
<path fill-rule="evenodd" clip-rule="evenodd" d="M98.8907 0.0696795C99.1433 0.0435433 100.389 0.0435603 101.243 0.174241C102.558 0.304922 103.595 0.871202 104.615 1.67271C105.721 2.55263 106.575 3.65035 107.298 4.85262C108.953 7.60563 109.885 10.6026 110.295 13.7738C110.774 17.5287 110.844 21.301 110.861 25.0733C110.868 26.5103 110.859 27.9472 110.851 29.3842L110.851 29.3864C110.849 29.8654 110.846 30.3443 110.844 30.8233C110.842 31.0152 110.839 31.2073 110.835 31.3996L110.835 31.4003C110.819 32.2816 110.803 33.1657 110.974 34.038C111.182 35.0549 111.023 36.0528 110.864 37.0533C110.836 37.2272 110.808 37.4011 110.783 37.5751C110.678 38.2939 110.565 39.0105 110.452 39.727C110.338 40.4436 110.225 41.1602 110.121 41.8789C110.077 42.149 110.007 42.3668 109.789 42.5584C109.542 42.7729 109.316 43.0111 109.089 43.2498C108.717 43.6415 108.344 44.0347 107.873 44.327C107.263 44.7103 107.054 45.2243 107.08 45.9997C107.233 49.9568 107.338 53.9206 107.444 57.8852L107.444 57.8873L107.49 59.5818C107.491 59.6624 107.499 59.7446 107.507 59.8272L107.507 59.8274C107.539 60.1643 107.571 60.5061 107.193 60.7579C107.117 60.8065 107.124 60.9819 107.129 61.1394C107.131 61.1797 107.132 61.219 107.132 61.2545C106.949 69.531 106.958 77.8075 107.263 86.0752L107.265 86.127C107.386 89.4727 107.508 92.8269 107.69 96.1725C107.89 99.7024 108.137 103.232 108.384 106.756L108.483 108.16C108.645 110.437 108.816 112.714 108.986 114.99C109.071 116.129 109.156 117.267 109.241 118.406C109.26 118.698 109.286 118.989 109.312 119.291L109.312 119.291C109.332 119.52 109.352 119.755 109.371 120H1.66402C1.67032 119.876 1.67611 119.753 1.68189 119.63C1.70007 119.242 1.71808 118.859 1.75114 118.475C1.88432 116.707 2.02301 114.937 2.16173 113.167L2.16174 113.167C2.41319 109.959 2.66473 106.749 2.88371 103.543C3.1712 99.3698 3.40644 95.1967 3.5981 91.0237C4.01628 81.8499 4.08598 72.6761 3.94659 63.5022C3.93055 62.4417 3.91151 61.3812 3.89246 60.3206L3.89246 60.3204L3.89245 60.3204C3.83905 57.3468 3.78563 54.372 3.79847 51.3925C3.80719 49.3887 3.82461 47.3849 4.28635 45.416C4.35604 45.1111 4.27764 44.9107 4.02499 44.7539L4.02478 44.7538C3.87674 44.6667 3.72871 44.5796 3.57196 44.5012C2.21288 43.874 1.42008 42.785 1.03675 41.3562C0.575013 39.6312 0.461752 37.8626 0.357207 36.1028C0.287939 34.9529 0.240704 33.7976 0.193602 32.6455C0.181463 32.3485 0.169332 32.0518 0.156836 31.7555C0.154541 31.6729 0.146804 31.5896 0.139041 31.5061C0.117403 31.2734 0.0955586 31.0384 0.190762 30.8081C0.162068 30.8111 0.133374 30.8129 0.10468 30.8147L0.104546 30.8147C0.0696971 30.8168 0.0348483 30.819 0 30.8234V24.028C0.0550893 24.028 0.11018 24.028 0.165269 24.0344C0.158894 23.9844 0.148106 23.9345 0.137318 23.8845C0.118165 23.7958 0.0990111 23.7071 0.104555 23.6184C0.143271 22.878 0.178627 22.1375 0.213983 21.3971L0.213986 21.397C0.305925 19.4716 0.397865 17.5462 0.548879 15.6207C0.740544 13.1291 1.16744 10.6723 2.07349 8.32872C2.9447 6.09843 4.02499 3.99883 5.74998 2.28256C7.14391 0.888627 8.84277 0.191665 10.7856 0H11.6568C12.4583 0.0958327 13.2511 0.252641 14.0264 0.470443C17.2151 1.35907 19.8374 3.17119 22.1809 5.44504C22.5991 5.8458 22.9999 6.27269 23.3745 6.70829C23.601 6.97837 23.8188 7.04805 24.1237 6.87381C24.2156 6.81977 24.3175 6.78248 24.4191 6.74532C24.4813 6.72258 24.5434 6.69989 24.6029 6.67343C29.5775 4.52155 34.7873 3.56322 40.1888 3.58065C42.3929 3.58936 44.5971 3.69392 46.7751 4.09467C49.563 4.60868 52.1766 5.62799 54.7118 6.87381C55.2955 7.16131 55.7485 7.15259 56.3235 6.86509C59.5731 5.27078 62.9447 4.08594 66.5863 3.77231C70.925 3.39769 75.22 3.56324 79.4889 4.44315C81.9109 4.93974 84.2283 5.78481 86.5108 6.70829C86.6405 6.76137 86.7472 6.80832 86.8368 6.84777C87.0654 6.9484 87.1831 7.00016 87.2867 6.98003C87.3965 6.95871 87.4907 6.8567 87.6846 6.64662C87.7423 6.58407 87.8089 6.51193 87.8874 6.42949C88.4449 5.84578 89.0199 5.26208 89.6211 4.71322C92.0082 2.57005 94.6828 0.932187 97.854 0.235222L98.8907 0.0696795ZM70.8901 75.0806L70.8873 75.1308C70.8708 75.4268 70.8548 75.7154 70.8465 76.0041C70.7333 79.7241 70.0625 83.3222 68.5117 86.7286C67.9367 87.9919 67.6231 88.0267 66.7345 86.9638C66.537 86.7257 66.3433 86.4846 66.1497 86.2436L66.1495 86.2433C65.7624 85.7614 65.3753 85.2794 64.9572 84.8207C63.4587 83.1828 61.6379 82.1199 59.425 81.7714C57.4648 81.4665 55.4959 81.4665 53.5182 81.5798C50.1641 81.7802 47.5505 83.2961 45.5554 85.9532C45.2766 86.3279 44.9891 86.6851 44.6929 87.0422C44.5448 87.2165 44.388 87.3994 44.2138 87.5388C43.8566 87.8176 43.5952 87.7828 43.3425 87.3995C43.1613 87.1275 43.0267 86.8244 42.8947 86.5269L42.8721 86.476C41.6873 83.7665 41.0426 80.9177 40.7725 77.9817C40.7176 77.3729 40.687 76.7606 40.6544 76.1101C40.6352 75.7273 40.6154 75.3314 40.5895 74.9151L40.5367 74.9847C40.4062 75.1565 40.3358 75.2492 40.2585 75.3419C38.4638 77.3806 35.3274 77.1279 33.9771 74.7757C32.9316 72.9548 32.6703 70.9511 32.9665 68.8776C33.0275 68.4507 33.2017 68.0412 33.4195 67.6579C34.2384 66.2204 35.5104 65.8284 36.9479 66.6124C38.063 67.2223 38.943 68.1022 39.6138 69.1825C39.6497 69.2376 39.6797 69.2972 39.7101 69.3577C39.7903 69.5173 39.8733 69.6826 40.0755 69.7836C40.0493 69.2328 39.9391 68.7115 39.8305 68.1975C39.7949 68.0287 39.7593 67.8607 39.727 67.6927C39.0039 64.025 38.2286 60.3659 37.1047 56.794C36.7562 55.6875 36.3468 54.5985 35.7282 53.6053C34.9964 52.4292 33.9684 51.7322 32.5831 51.5057C31.8498 51.3886 31.1122 51.3457 30.3763 51.3028L30.3761 51.3028C30.0717 51.285 29.7676 51.2673 29.4642 51.2444C28.1574 51.1398 27.1991 50.6084 26.5892 49.4497C25.5177 47.4285 23.9408 45.8777 22.1025 44.5535C21.0613 43.8076 20.0513 43.0242 19.0409 42.2404L19.0407 42.2403C18.8591 42.0994 18.6775 41.9586 18.4957 41.8179C17.9207 41.3736 17.3806 40.8857 16.9711 40.2672C16.4397 39.4569 16.4832 38.7861 17.1105 38.0369C17.3488 37.7536 17.6346 37.5321 17.9223 37.3092C18.0238 37.2305 18.1256 37.1517 18.2257 37.0698C18.6438 36.7214 19.0794 36.6342 19.5935 36.7475C20.0407 36.8409 20.4907 36.9204 20.942 37.0001L20.9422 37.0002C21.2908 37.0618 21.64 37.1235 21.9893 37.1918C22.2855 37.2528 22.4074 37.0873 22.5294 36.8782C22.6862 36.6255 22.6078 36.4251 22.4075 36.2683C22.2245 36.1376 22.0154 35.9982 21.7976 35.946C20.9961 35.7282 20.5518 35.1445 20.1772 34.4649C20.097 34.3212 20.0385 34.166 19.9793 34.0086C19.8841 33.7556 19.7868 33.4969 19.5935 33.2714C19.3146 33.4611 19.0341 33.6474 18.7541 33.8334L18.7539 33.8335C18.4041 34.0658 18.0552 34.2975 17.7116 34.5346C15.6033 35.9808 13.5386 37.4793 11.6829 39.2478C9.28708 41.5304 8.02383 44.3444 7.64921 47.6027C7.44884 49.3626 7.32687 51.1311 7.21361 52.8909C7.10782 54.5948 7.02693 56.2987 6.94593 58.0048L6.94593 58.0049L6.94593 58.0049C6.9002 58.9682 6.85444 59.9322 6.80414 60.8973C6.778 61.2981 6.89126 61.6204 7.14391 61.9341C7.77989 62.7356 8.50299 63.45 9.25223 64.1382C11.0295 65.7674 12.8765 67.3181 14.7408 68.8428C15.159 69.1825 15.4204 69.5658 15.5598 70.1147C16.4658 73.617 17.4241 77.1105 18.6264 80.5343C20.4821 85.8487 23.7578 89.9521 28.6453 92.7922C31.3112 94.343 34.0555 95.7108 36.8695 96.9479C37.4358 97.2005 37.6274 97.5142 37.6449 98.1153C37.6884 99.6573 37.8888 101.182 38.3505 102.663C39.91 107.716 44.2138 110.408 49.4061 109.606C51.2444 109.328 53.0304 108.805 54.8076 108.282C55.3042 108.134 55.7398 108.125 56.2451 108.274C58.1356 108.84 60.0262 109.397 61.9864 109.659C64.5913 110.016 67.0219 109.633 69.1303 107.925C70.9685 106.435 72.2143 104.562 72.8503 102.28C73.2337 100.903 73.3818 99.4831 73.4515 98.063C73.4863 97.4532 73.7215 97.1657 74.2617 96.9304C77.1802 95.6323 80.0378 94.2297 82.7734 92.5831C87.2514 89.8911 90.3616 86.1101 92.1824 81.2139C93.5328 77.5897 94.5434 73.8783 95.493 70.1408C95.6237 69.6181 95.8589 69.2174 96.2945 68.8602L96.5992 68.6098C98.6499 66.9251 100.702 65.2397 102.611 63.3803C103.212 62.7879 103.778 62.1693 104.257 61.4723C104.51 61.0977 104.632 60.7144 104.615 60.2526L104.593 59.7622C104.417 55.8391 104.242 51.9089 103.865 47.9948C103.517 44.4054 102.132 41.3562 99.4396 38.9168C96.8762 36.5865 94.0051 34.6837 91.0634 32.7341L90.9801 32.679C90.9023 32.9341 90.8244 33.1825 90.7478 33.427C90.5759 33.9755 90.4104 34.5035 90.2657 35.0399C90.1653 35.4206 89.9364 35.733 89.7023 36.0524C89.4489 36.398 89.1896 36.7519 89.0809 37.2092C89.331 37.1675 89.5764 37.1321 89.8173 37.0973L89.8174 37.0973C90.3823 37.0157 90.9228 36.9376 91.4419 36.791C92.3131 36.5471 93.0275 36.7126 93.6635 37.3312C93.7303 37.3941 93.8007 37.4517 93.8714 37.5095L93.8714 37.5096L93.8716 37.5097C93.9575 37.58 94.044 37.6507 94.1252 37.7319C95.1271 38.6903 95.1706 39.5615 94.2733 40.6244C93.6722 41.3387 92.9316 41.9137 92.1911 42.4713C91.5506 42.96 90.9049 43.4409 90.2583 43.9226L90.2562 43.9241C89.7162 44.3264 89.1755 44.7291 88.6366 45.1372C87.4517 46.0433 86.3976 47.0713 85.5961 48.3433L85.4609 48.5583C85.2275 48.929 84.9962 49.2965 84.7771 49.6762C84.2196 50.6345 83.3832 51.1137 82.2855 51.1921C82.054 51.2095 81.8224 51.2284 81.5909 51.2472C81.0122 51.2943 80.4335 51.3414 79.8548 51.3663C77.6942 51.4535 76.1783 52.4641 75.3071 54.4417C74.9674 55.2084 74.6537 55.9924 74.4011 56.794C73.373 60.061 72.6499 63.4064 71.9704 66.7606C71.9395 66.9126 71.9077 67.0644 71.8759 67.2163C71.7019 68.0475 71.5281 68.8782 71.4912 69.7401C71.6434 69.5727 71.7624 69.3853 71.8829 69.1955L71.883 69.1953L71.9356 69.1128C72.5454 68.1371 73.3382 67.3356 74.3139 66.7344C75.9954 65.6977 77.4939 66.1768 78.2779 67.989C78.3999 68.2765 78.5306 68.5901 78.5654 68.895C78.8355 70.9336 78.5829 72.9113 77.5636 74.7147C76.248 77.0408 73.164 77.3631 71.3431 75.4029C71.3025 75.3731 71.2686 75.3365 71.2332 75.2985C71.1551 75.2142 71.0701 75.1226 70.8901 75.0806ZM1.58561 21.9021C1.58561 22.0988 1.58622 22.2801 1.5868 22.4501C1.58839 22.9203 1.58969 23.3042 1.5769 23.6881C1.56818 23.993 1.6466 24.237 1.82955 24.4896L1.82958 24.4896C3.19736 26.293 4.56515 28.0964 6.08975 29.7778C6.60376 30.3354 7.14391 30.8581 7.7799 31.2763C8.85148 31.9733 10.0015 32.2259 11.2647 31.9036C12.0314 31.7119 12.7545 31.4157 13.4514 31.0672C14.828 30.379 16.1086 29.5252 17.3806 28.654C19.4541 27.2216 21.474 25.7164 23.4962 24.2096L23.4963 24.2095C24.5243 23.4435 25.5528 22.6771 26.5892 21.9195C26.8088 21.7596 27.026 21.5963 27.2435 21.4328C27.6301 21.1422 28.0173 20.8511 28.4188 20.5779C28.7673 20.3427 28.7585 20.1336 28.593 19.7851L28.3311 19.2524C27.0611 16.668 25.7929 14.0872 24.2196 11.6742C22.7821 9.47002 21.0832 7.49237 19.0185 5.8545C17.6942 4.80034 16.2654 3.92913 14.645 3.38026C11.9704 2.47421 9.61814 2.95339 7.60565 4.96588C5.1837 7.39654 3.42386 10.2192 2.57007 13.5734C1.8644 16.3787 1.71629 19.2449 1.58561 21.9021ZM109.763 22.4946C109.755 20.029 109.537 17.8597 109.223 15.7078C108.639 11.6742 106.871 8.21547 104.057 5.28822C103.613 4.82648 103.133 4.39958 102.611 4.03367C101.234 3.06663 99.7183 2.76173 98.063 3.04922C95.8241 3.44127 93.9422 4.56511 92.2085 5.95904C89.8214 7.8757 87.9658 10.2367 86.4063 12.8416C85.0821 15.0544 83.9495 17.3719 82.8169 19.6893C82.5381 20.2643 82.5381 20.273 83.0609 20.6476C83.9507 21.2968 84.8412 21.9461 85.7321 22.5955L85.7348 22.5975C87.8436 24.1349 89.9542 25.6735 92.0604 27.2165C93.6722 28.4013 95.31 29.5513 97.0437 30.5532C97.8975 31.0498 98.7861 31.4767 99.7271 31.7816C101.287 32.2869 102.698 32.0168 103.996 31.0324C104.58 30.5881 105.085 30.074 105.573 29.5339C106.179 28.8556 106.746 28.147 107.313 27.4385L107.313 27.4383C107.707 26.9456 108.101 26.453 108.509 25.9707C109.441 24.8642 110.155 23.7317 109.763 22.4946ZM54.8528 105.037C55.149 105.039 55.4448 105.041 55.7398 105.041C55.7398 105.033 55.7398 105.033 55.7224 105.033C56.0621 105.033 56.4019 105.035 56.7417 105.037C57.5345 105.043 58.3273 105.048 59.1201 105.024C59.878 104.998 60.6011 104.85 61.2371 104.353C62.9534 102.994 63.6329 101.199 63.5545 99.0735C63.4935 97.6273 62.8053 96.5906 61.4375 96.0679C60.9758 95.8936 60.5053 95.7455 60.0261 95.641C57.822 95.1531 55.5917 95.127 53.3614 95.336C52.1853 95.4493 51.0092 95.641 49.9027 96.1288C48.805 96.6167 48.1429 97.4269 47.9774 98.6205C47.8031 99.8837 47.9686 101.13 48.5436 102.262C49.4148 103.978 50.6955 105.12 52.7777 105.05C53.4671 105.026 54.1608 105.031 54.8528 105.037Z" fill="black"/>
</svg>
