<svg width="36" height="58" viewBox="0 0 36 58" fill="none" xmlns="http://www.w3.org/2000/svg">
<path d="M35.4772 7.34493C35.4645 7.10038 35.4603 6.9001 35.4561 6.70614C35.4498 6.40467 35.4435 6.12007 35.4076 5.71741C35.3212 4.74553 35.1061 3.82425 34.7688 2.98308C34.4884 2.28738 34.1511 1.70131 33.6768 1.08361C33.1329 0.375257 32.3571 0.00210703 31.4379 0.00210703C31.284 0.00210703 31.1259 0.0126483 30.9636 0.0337302C29.9854 0.158113 29.0662 0.583968 28.1533 1.3387C27.8982 1.54952 27.66 1.77088 27.4387 1.98591C27.4092 1.97537 27.3796 1.96483 27.3501 1.95429C27.2974 1.93532 27.2468 1.91634 27.1962 1.89737C25.9461 1.41249 24.6137 1.14264 23.1211 1.07728C22.9609 1.07096 22.7964 1.06674 22.6172 1.06674C22.3305 1.06674 22.0501 1.07518 21.8393 1.08361C21.4324 1.09837 21.0445 1.15107 20.7199 1.20167C19.807 1.3387 18.9448 1.60855 18.1521 2.00278C18.0003 2.07867 17.8527 2.12294 17.7537 2.12294C17.6546 2.12294 17.5049 2.07656 17.3489 2.00067C16.5583 1.60644 15.6939 1.33659 14.7811 1.19956C14.4564 1.15107 14.0685 1.09837 13.6617 1.0815C13.4508 1.07307 13.1726 1.06463 12.8837 1.06463C12.7045 1.06463 12.5401 1.06885 12.3799 1.07518C10.8873 1.14053 9.55491 1.40827 8.30475 1.89526C8.25415 1.91423 8.20145 1.93321 8.15085 1.95218C8.12134 1.96272 8.09183 1.97326 8.06231 1.9838C7.84095 1.76877 7.60273 1.54741 7.34764 1.33659C6.43268 0.583967 5.51351 0.156005 4.53742 0.0316215C4.37509 0.0105397 4.21698 0 4.06308 0C3.1418 0 2.3681 0.375257 1.82418 1.0815C1.34984 1.6992 1.01253 2.28528 0.732141 2.98098C0.392723 3.82214 0.177688 4.74131 0.0933608 5.7153C0.0575216 6.11796 0.051198 6.40257 0.0448734 6.70193C0.040657 6.89588 0.0364394 7.09616 0.0237903 7.34071C-0.0436717 8.64779 0.0343324 10.5578 0.232502 12.451L0.234609 12.4636L0.236719 12.4763C0.257801 12.6154 0.45597 13.8086 1.25708 14.536L0.576134 36.9924L0.557161 37.6438H1.20859H34.3008H34.9522L34.9333 36.9924L34.2523 14.5381C35.0534 13.8086 35.2516 12.6175 35.2727 12.4784L35.2748 12.4657L35.2769 12.451C35.4666 10.562 35.5446 8.652 35.4772 7.34493ZM34.6402 12.3898C34.596 12.6807 34.3641 13.6442 33.74 14.1438C33.6452 14.2261 33.6093 14.4453 33.6093 14.4453L34.2924 37.0177H1.20227L1.88532 14.4432C1.88532 14.4432 1.84948 14.226 1.75461 14.1417C1.13059 13.6421 0.898689 12.6786 0.854417 12.3877C0.637273 10.3111 0.593001 8.48124 0.649922 7.37444C0.683653 6.73988 0.660465 6.40889 0.717386 5.77011C0.795389 4.89521 0.985123 4.03085 1.314 3.21709C1.57752 2.56566 1.8811 2.03651 2.31961 1.4673C2.77076 0.879114 3.3737 0.632456 4.05886 0.632456C4.18746 0.632456 4.32028 0.640888 4.45309 0.657754C5.40389 0.77792 6.21132 1.22064 6.94075 1.82147C7.2359 2.06392 7.51207 2.32744 7.78192 2.59518C7.84095 2.6521 7.89366 2.68372 7.9569 2.68372C7.99063 2.68372 8.02647 2.67529 8.06653 2.65632C8.21621 2.58885 8.37643 2.53826 8.53033 2.47923C9.77627 1.99434 11.0707 1.76034 12.4031 1.70131C12.5612 1.69498 12.7193 1.69077 12.8774 1.69077C13.1283 1.69077 13.3792 1.69709 13.63 1.70763C13.9821 1.72028 14.3321 1.76666 14.6799 1.81726C15.5105 1.94375 16.3116 2.18619 17.0601 2.55934C17.1844 2.62048 17.4627 2.74697 17.7431 2.74908H17.7452C18.0235 2.74908 18.3018 2.62469 18.4262 2.56356C19.1746 2.19041 19.9757 1.94586 20.8063 1.82147C21.1542 1.76877 21.5041 1.7245 21.8562 1.71185C22.1071 1.70131 22.3579 1.69498 22.6088 1.69498C22.7669 1.69498 22.925 1.69709 23.0831 1.70552C24.4155 1.76455 25.7099 1.99856 26.9559 2.48344C27.1098 2.54247 27.2679 2.59307 27.4197 2.66053C27.4597 2.67951 27.4956 2.68794 27.5293 2.68794C27.5926 2.68794 27.6453 2.65632 27.7043 2.59939C27.9762 2.33165 28.2524 2.06813 28.5455 1.82569C29.2749 1.22486 30.0844 0.782138 31.0331 0.661971C31.168 0.645105 31.2988 0.636672 31.4274 0.636672C32.1125 0.636672 32.7155 0.885438 33.1666 1.47151C33.6051 2.04072 33.9108 2.56988 34.1722 3.22131C34.5011 4.03507 34.6908 4.89943 34.7688 5.77432C34.8258 6.41311 34.8026 6.74409 34.8363 7.37866C34.9016 8.48335 34.8574 10.3133 34.6402 12.3898Z" fill="#969696"/>
<path d="M3.77216 10.2523C3.95768 10.2839 4.13055 10.2481 4.30131 10.1996C4.75036 10.0773 5.14037 9.8349 5.52617 9.58402C6.28512 9.09282 6.99979 8.53625 7.73344 8.0071C8.15297 7.70352 8.57039 7.39572 8.98992 7.09214C9.07636 7.0289 9.1396 6.9783 9.07847 6.85181C8.62099 5.92842 8.17405 5.00082 7.55635 4.16809C7.06725 3.51033 6.48961 2.94745 5.77283 2.54057C5.39336 2.32553 4.99491 2.1632 4.55008 2.15688C4.02514 2.14844 3.59929 2.37191 3.23036 2.72609C2.44822 3.4766 1.96755 4.39156 1.75251 5.44987C1.61126 6.14135 1.56489 6.84338 1.5438 7.64027C1.52272 7.99867 1.62602 8.24743 1.87479 8.54258C2.20367 8.93259 2.50514 9.34791 2.86142 9.71684C3.1144 9.98036 3.3969 10.1912 3.77216 10.2523Z" fill="#969696"/>
<path d="M33.7421 5.45435C33.5271 4.39604 33.0464 3.48109 32.2643 2.73057C31.8974 2.3785 31.4695 2.15293 30.9446 2.16136C30.4997 2.16769 30.1013 2.33002 29.7218 2.54505C29.005 2.95404 28.4274 3.51482 27.9383 4.17257C27.3206 5.00531 26.8736 5.93291 26.4162 6.85629C26.3529 6.98279 26.4162 7.03338 26.5047 7.09663C26.9242 7.40021 27.3417 7.708 27.7612 8.01158C28.4948 8.54074 29.2074 9.09519 29.9685 9.58851C30.3543 9.83727 30.7443 10.0818 31.1933 10.2041C31.3662 10.2505 31.537 10.2863 31.7225 10.2568C32.0977 10.1936 32.3802 9.98484 32.6332 9.72132C32.9895 9.35239 33.291 8.93708 33.6198 8.54706C33.8686 8.25192 33.9719 8.00315 33.9508 7.64476C33.9297 6.84786 33.8834 6.14584 33.7421 5.45435Z" fill="#969696"/>
<path d="M32.6417 18.5729C32.6122 17.5188 32.549 16.4689 32.4583 15.4191C32.4182 14.9426 32.3381 14.4746 32.1758 14.0213C31.9144 13.2919 31.4169 12.7417 30.8413 12.2484C30.1793 11.6813 29.4541 11.2027 28.7268 10.722C28.594 10.6335 28.4802 10.6166 28.4317 10.7853C28.3768 10.9834 28.3263 11.3587 28.1154 11.7719C28.107 11.7824 28.1007 11.7951 28.0922 11.8077C28.0754 11.8394 28.048 11.8752 28.0669 11.9068C28.088 11.9406 28.1323 11.9258 28.166 11.9216C28.3558 11.8879 28.5476 11.8647 28.7331 11.8162C28.9777 11.7529 29.1948 11.7719 29.3761 11.968C29.3846 11.9785 29.4014 11.9827 29.4099 11.9933C29.7746 12.4781 29.9032 12.6911 29.4858 13.1127C29.2391 13.3615 28.9545 13.566 28.6741 13.7747C28.4 13.9813 28.126 14.1837 27.854 14.3903C27.4176 14.7234 27.0613 15.1281 26.802 15.613C26.6018 15.9862 26.3024 16.1759 25.8744 16.1928C25.691 16.1991 25.5055 16.2244 25.32 16.2286C24.6306 16.2413 24.1394 16.5491 23.8716 17.1963C23.781 17.4134 23.6903 17.6306 23.6208 17.854C23.2961 18.9018 23.0642 19.9728 22.8513 21.0479C22.8154 21.225 22.7564 21.4021 22.7649 21.6003C22.8429 21.5518 22.866 21.4822 22.9061 21.4274C23.1275 21.1217 23.3952 20.8708 23.7431 20.7148C24.0761 20.5673 24.3945 20.6453 24.6264 20.9278C24.7318 21.0564 24.8119 21.2039 24.8456 21.3642C24.989 22.0556 24.8815 22.7155 24.5104 23.3142C24.2258 23.7738 23.6714 23.9361 23.157 23.7654C22.9124 23.6832 22.729 23.5229 22.5456 23.2889C22.5772 23.8919 22.5224 24.4358 22.4233 24.9755C22.2989 25.6501 22.1155 26.3079 21.812 26.9256C21.6876 27.1806 21.5505 27.1975 21.3608 26.9825C21.228 26.8328 21.112 26.6705 20.9855 26.5145C20.4943 25.9094 19.8977 25.4709 19.1071 25.3465C18.6539 25.2748 16.8345 25.2727 16.3813 25.3444C15.5907 25.4688 14.9941 25.9073 14.5029 26.5124C14.3764 26.6684 14.2604 26.8307 14.1276 26.9804C13.9379 27.1954 13.8008 27.1785 13.6765 26.9234C13.3729 26.3057 13.1874 25.648 13.0651 24.9734C12.966 24.4337 12.9112 23.8898 12.9428 23.2868C12.7573 23.5208 12.576 23.6832 12.3314 23.7633C11.817 23.934 11.2605 23.7717 10.978 23.3121C10.6069 22.7134 10.4994 22.0535 10.6428 21.362C10.6765 21.2018 10.7566 21.0543 10.862 20.9257C11.0918 20.6432 11.4123 20.5652 11.7454 20.7127C12.0932 20.8687 12.3609 21.1196 12.5823 21.4253C12.6224 21.4801 12.6477 21.5518 12.7236 21.5982C12.732 21.4 12.673 21.2229 12.6371 21.0458C12.4242 19.9706 12.1944 18.8997 11.8676 17.8519C11.7981 17.6263 11.7074 17.4113 11.6168 17.1942C11.3469 16.5469 10.8578 16.2413 10.1684 16.2265C9.98291 16.2223 9.7995 16.197 9.61398 16.1907C9.18812 16.1738 8.88665 15.9841 8.68637 15.6109C8.42707 15.126 8.07078 14.7213 7.63439 14.3882C7.36243 14.1816 7.08626 13.9771 6.8143 13.7726C6.53602 13.5618 6.25142 13.3594 6.00265 13.1106C5.58523 12.689 5.71383 12.476 6.07855 11.9912C6.08698 11.9806 6.10385 11.9764 6.11228 11.9659C6.29358 11.7698 6.51073 11.7529 6.75528 11.8141C6.9408 11.8626 7.13264 11.8857 7.32238 11.9195C7.35611 11.9258 7.40249 11.9384 7.42146 11.9047C7.44043 11.8731 7.41514 11.8373 7.39616 11.8056C7.38984 11.793 7.38351 11.7803 7.37297 11.7698C7.16005 11.3545 7.10945 10.9813 7.05675 10.7832C7.00826 10.6145 6.89442 10.6314 6.7616 10.7199C6.03638 11.2006 5.31117 11.6791 4.64709 12.2462C4.07155 12.7396 3.57402 13.2898 3.3126 14.0192C3.15027 14.4725 3.07227 14.9405 3.03011 15.417C2.93946 16.4668 2.87832 17.5188 2.84669 18.5708C2.84669 18.5771 2.84669 18.5856 2.84459 18.5919C2.7202 19.0009 2.93102 19.2876 3.18822 19.5617C3.59721 20.0002 4.05469 20.3881 4.51005 20.776C4.79677 21.0205 5.08559 21.2651 5.38074 21.5012C5.48404 21.5855 5.51988 21.693 5.54939 21.8111C5.75178 22.5827 5.94995 23.3543 6.19239 24.1132C6.35894 24.6361 6.54446 25.1505 6.76371 25.6543C7.30762 26.8981 8.19306 27.8363 9.34413 28.5383C10.179 29.0485 11.0581 29.4744 11.9499 29.8707C12.1185 29.9466 12.1775 30.0393 12.186 30.2207C12.2176 30.8046 12.2724 31.3886 12.5254 31.9283C12.9112 32.7505 13.4909 33.3724 14.3911 33.6275C14.895 33.7687 15.4073 33.7202 15.9154 33.6275C16.4002 33.5389 16.8725 33.4019 17.3426 33.2586C17.4775 33.2185 18.0003 33.2206 18.1353 33.2607C18.6054 33.4019 19.0776 33.5389 19.5625 33.6296C20.0706 33.7224 20.5829 33.773 21.0867 33.6296C21.9869 33.3745 22.5667 32.7526 22.9525 31.9304C23.2055 31.3928 23.2582 30.8067 23.2919 30.2228C23.3024 30.0415 23.3594 29.9487 23.528 29.8728C24.4198 29.4765 25.2989 29.0506 26.1337 28.5404C27.2848 27.8363 28.1702 26.9003 28.7142 25.6564C28.9334 25.1526 29.121 24.6382 29.2855 24.1153C29.5279 23.3543 29.7261 22.5827 29.9285 21.8132C29.9601 21.6951 29.9938 21.5855 30.0971 21.5033C30.3923 21.2672 30.6811 21.0247 30.9678 20.7781C31.4232 20.3902 31.8785 20.0023 32.2896 19.5638C32.5468 19.2897 32.7577 19.0009 32.6333 18.594C32.6417 18.5877 32.6417 18.5813 32.6417 18.5729ZM19.6152 31.9873C19.4086 32.1391 19.1599 32.1475 18.9216 32.1581C18.6159 32.1707 16.883 32.1686 16.5773 32.156C16.337 32.1454 16.0903 32.137 15.8837 31.9852C15.2766 31.5446 15.0615 30.9311 15.1353 30.208C15.1691 29.877 15.3461 29.624 15.6539 29.4744C15.8416 29.3837 16.0376 29.3205 16.24 29.2804C16.7397 29.1813 18.7572 29.1855 19.2589 29.2825C19.4613 29.3226 19.6574 29.3858 19.845 29.4765C20.1528 29.6261 20.3299 29.8812 20.3636 30.2101C20.4374 30.9332 20.2203 31.5467 19.6152 31.9873Z" fill="#969696"/>
<path d="M31.2482 47.4241H23.9981C23.2117 47.4241 22.5709 46.7853 22.5709 45.9968C22.5709 45.2105 23.2117 44.5696 23.9981 44.5696H31.3198V41.2471H23.9981C21.3797 41.2471 19.2505 43.3784 19.2505 45.9968V53.2321C19.2505 54.0185 18.6096 54.6594 17.8232 54.6594C17.0369 54.6594 16.396 54.0185 16.396 53.2321V46.0432L16.3939 45.9104H16.3917C16.3222 43.3574 14.2098 41.2935 11.6462 41.2935C9.08266 41.2935 6.97237 43.3574 6.90069 45.9104L6.89647 53.2321C6.89647 54.0185 6.25558 54.6594 5.46923 54.6594C4.68287 54.6594 4.04199 54.0185 4.04199 53.2321V45.9125H0.719482V53.2342C0.719482 55.8526 2.85086 57.984 5.46923 57.984C8.03279 57.984 10.1431 55.9201 10.2148 53.367L10.219 46.0453C10.219 45.259 10.8578 44.6181 11.6462 44.6181C12.4326 44.6181 13.0735 45.259 13.0735 46.0453V53.2342L13.0756 53.367H13.0777C13.1472 55.9201 15.2597 57.984 17.8232 57.984C20.4416 57.984 22.573 55.8526 22.573 53.2342V50.5231C23.041 50.6707 23.5216 50.7466 24.015 50.7466H31.2503C32.0366 50.7466 32.6775 51.3875 32.6775 52.1738C32.6775 52.9602 32.0387 53.6011 31.2503 53.6011H23.9285V56.9236H31.2503C33.8686 56.9236 36 54.7922 36 52.1738C35.9958 49.5554 33.8665 47.4241 31.2482 47.4241Z" fill="#969696"/>
</svg>
